<svg width="74" height="74" viewBox="0 0 74 74" fill="none" xmlns="http://www.w3.org/2000/svg">
<path d="M36.9997 0.333984C16.7597 0.333984 0.333008 16.7607 0.333008 37.0006C0.333008 57.2407 16.7597 73.6673 36.9997 73.6673C57.2397 73.6673 73.6663 57.2407 73.6663 37.0006C73.6663 16.7607 57.2397 0.333984 36.9997 0.333984ZM36.9997 66.334C20.8297 66.334 7.66634 53.1706 7.66634 37.0006C7.66634 20.8307 20.8297 7.66732 36.9997 7.66732C53.1697 7.66732 66.333 20.8307 66.333 37.0006C66.333 53.1706 53.1697 66.334 36.9997 66.334ZM40.263 33.7006C33.7363 31.5373 30.583 30.1806 30.583 26.734C30.583 22.994 34.653 21.6373 37.2197 21.6373C42.023 21.6373 43.783 25.2673 44.1863 26.5506L49.9797 24.094C49.4297 22.4806 46.973 17.0907 40.2263 15.9173V11.334H33.8097V15.954C24.2763 18.0073 24.203 26.404 24.203 26.8073C24.203 35.1306 32.453 37.4773 36.4863 38.944C42.2797 40.9973 44.8463 42.8673 44.8463 46.3873C44.8463 50.5307 40.9963 52.2906 37.5863 52.2906C30.913 52.2906 29.0063 45.434 28.7863 44.6273L22.6997 47.084C25.0097 55.114 31.0597 57.2773 33.773 57.9373V62.6673H40.1897V58.1207C42.0963 57.7906 51.263 55.9573 51.263 46.314C51.2997 41.2173 49.063 36.744 40.263 33.7006Z" fill="#0096EB"/>
</svg>
