<svg width="20" height="20" viewBox="0 0 20 20" fill="none" xmlns="http://www.w3.org/2000/svg">
<path d="M13.0998 17.3708L14.0998 19.1108C13.1398 19.5508 12.0898 19.8408 10.9998 19.9508V17.9308C11.7398 17.8408 12.4398 17.6508 13.0998 17.3708ZM2.0698 11.0008H0.0498047C0.159805 12.1008 0.449805 13.1408 0.889805 14.1008L2.6298 13.1008C2.3498 12.4408 2.1598 11.7408 2.0698 11.0008ZM13.0998 2.63078L14.0998 0.890781C13.1398 0.450781 12.0998 0.160781 10.9998 0.0507812V2.07078C11.7398 2.16078 12.4398 2.35078 13.0998 2.63078ZM17.9298 9.00078H19.9498C19.8398 7.90078 19.5498 6.86078 19.1098 5.90078L17.3698 6.90078C17.6498 7.56078 17.8398 8.26078 17.9298 9.00078ZM6.8998 17.3708L5.89981 19.1108C6.85981 19.5508 7.9098 19.8408 8.9998 19.9508V17.9308C8.2598 17.8408 7.5598 17.6508 6.8998 17.3708ZM8.9998 2.07078V0.0507812C7.8998 0.160781 6.85981 0.450781 5.89981 0.890781L6.8998 2.63078C7.5598 2.35078 8.2598 2.16078 8.9998 2.07078ZM16.3598 5.17078L18.0998 4.16078C17.4698 3.29078 16.6998 2.52078 15.8298 1.89078L14.8198 3.63078C15.4098 4.08078 15.9198 4.59078 16.3598 5.17078ZM2.6298 6.90078L0.889805 5.90078C0.449805 6.86078 0.159805 7.90078 0.0498047 9.00078H2.0698C2.1598 8.26078 2.3498 7.56078 2.6298 6.90078ZM17.9298 11.0008C17.8398 11.7408 17.6498 12.4408 17.3698 13.1008L19.1098 14.1008C19.5498 13.1408 19.8398 12.0908 19.9498 11.0008H17.9298ZM14.8298 16.3608L15.8398 18.1008C16.7098 17.4708 17.4798 16.7008 18.1098 15.8308L16.3698 14.8208C15.9198 15.4108 15.4098 15.9208 14.8298 16.3608ZM5.1698 3.64078L4.1698 1.89078C3.2898 2.53078 2.5298 3.29078 1.8998 4.17078L3.6398 5.18078C4.0798 4.59078 4.5898 4.08078 5.1698 3.64078ZM3.6398 14.8308L1.8998 15.8308C2.5298 16.7008 3.2998 17.4708 4.1698 18.1008L5.1798 16.3608C4.5898 15.9208 4.0798 15.4108 3.6398 14.8308ZM10.9998 5.00078H8.9998V10.4108L13.2898 14.7008L14.6998 13.2908L10.9998 9.59078V5.00078Z" fill="white"/>
</svg>
