<svg width="48" height="44" viewBox="0 0 48 44" fill="none" xmlns="http://www.w3.org/2000/svg">
<path d="M39.2314 2.51614C39.4859 2.60574 39.7075 2.76962 39.8678 2.98659C40.0281 3.20355 40.1196 3.46361 40.1305 3.73314C40.2687 5.17248 40.3276 6.61834 40.3069 8.06415C40.2917 8.72741 40.2765 9.39067 40.2324 10.0539C39.9829 9.95049 39.7471 9.84704 39.4961 9.74968C38.8633 9.5002 38.2441 9.26442 37.6098 9.04232C37.625 8.7046 37.6402 8.38056 37.6402 8.04132C37.6539 6.9658 37.625 5.87506 37.5368 4.77064C36.5053 4.44661 35.4298 4.15149 34.3421 3.88679C32.973 3.56276 31.6039 3.29655 30.2165 3.10488C29.4361 3.00295 28.6846 2.91319 27.9635 2.84017C27.2424 2.76715 26.4742 2.72303 25.6938 2.68805C25.0853 2.67283 24.5148 2.65914 23.8972 2.65914L22.9982 2.67284C22.732 2.67284 22.4231 2.68805 22.0991 2.68805C21.3187 2.71847 20.5672 2.77628 19.8294 2.84017C19.0916 2.90406 18.3568 3.00295 17.5764 3.10488C16.2073 3.29655 14.8214 3.56124 13.4508 3.88679C12.3601 4.15149 11.2997 4.44661 10.2562 4.77064C10.0767 7.19227 10.1409 9.62581 10.4479 12.0346C10.6108 13.3821 10.8469 14.7197 11.1552 16.0416C11.3317 16.7931 11.5386 17.5446 11.7637 18.2656L11.779 18.325L11.7926 18.3843L11.8079 18.4436L11.8368 18.5014L11.852 18.5608L11.8671 18.6201L11.8824 18.6794L11.9402 18.8407V18.8559L11.9554 18.9137L12.0589 19.1936L12.0725 19.2529L12.1623 19.4887L12.176 19.5329C12.631 20.8521 13.1577 22.1456 13.7536 23.4075L13.7824 23.4516L13.7977 23.4972L13.8113 23.5261L13.8417 23.5703L13.8555 23.6144L13.8707 23.6585L13.8996 23.6874C14.1217 24.1437 14.356 24.6001 14.5933 25.0565C14.7698 25.3516 14.9309 25.665 15.0937 25.9404C15.2854 26.2801 15.4624 26.5747 15.6247 26.8242C16.1252 27.635 16.6545 28.4306 17.2159 29.1974C17.7772 29.9641 18.3492 30.7003 18.9836 31.4366C19.2199 31.7165 19.4851 32.0111 19.7792 32.3205C20.0591 32.6247 20.3238 32.929 20.5748 33.1891C21.2229 33.8524 21.8998 34.4867 22.5783 35.1044L22.8582 35.3402C22.6665 35.4923 22.4749 35.6444 22.2695 35.7965C21.7386 36.1936 21.194 36.5769 20.6478 36.9603C17.7042 34.3214 15.1717 31.2572 13.1344 27.8693V27.8541L13.1191 27.8404L13.104 27.8252C12.9868 27.6335 12.8833 27.4418 12.7799 27.2806C12.6034 26.9565 12.4118 26.631 12.2505 26.3222C11.7637 25.4383 11.3211 24.5256 10.8951 23.5672C10.4692 22.6088 10.0995 21.6672 9.76027 20.724C9.28639 19.3907 8.88314 18.0334 8.55233 16.6577C7.55147 12.425 7.25294 8.05659 7.66855 3.72706C7.68102 3.45713 7.77483 3.19729 7.93774 2.9817C8.10066 2.76612 8.32503 2.60488 8.5813 2.51919C9.98085 2.0476 11.4108 1.63534 12.8545 1.28089C14.2692 0.956863 15.7266 0.672392 17.2159 0.456375C17.9765 0.35293 18.7767 0.264699 19.6165 0.191679C20.4273 0.117138 21.2229 0.0593291 22.0033 0.0289041C22.2984 0.0289041 22.6117 0.0136953 22.9464 0.0136953L23.9049 0L24.8617 0.0136953C25.201 0.0136953 25.5249 0.0289041 25.8049 0.0289041C26.6005 0.0593291 27.3961 0.117138 28.2069 0.191679C29.0466 0.264699 29.8422 0.35293 30.5937 0.456375C32.0952 0.676956 33.5541 0.956863 34.9689 1.28089C36.3989 1.63534 37.8273 2.04152 39.2421 2.51919L39.2314 2.51614ZM30.5968 29.1989C31.1277 28.4474 31.6617 27.6776 32.1439 26.885C32.3103 26.5862 32.5834 26.361 32.9085 26.2544C33.2335 26.1478 33.5868 26.1677 33.8979 26.31C36.4581 27.5337 38.7822 29.1997 40.7633 31.2313C40.9951 31.4449 41.1442 31.7334 41.1846 32.0461C41.2249 32.3587 41.1539 32.6756 40.9839 32.9411C40.5717 33.5892 40.1153 34.2661 39.6589 34.9294C39.2025 35.5927 38.7005 36.2407 38.2152 36.8599C37.8608 37.3163 37.4774 37.7878 37.0651 38.2594C36.7122 38.6717 36.3137 39.1281 35.8725 39.6149C35.2534 40.2933 34.6555 40.911 34.047 41.5149H34.0318C33.4431 42.1052 32.8148 42.6802 32.1607 43.2537C31.9677 43.4417 31.7228 43.5675 31.4576 43.615C31.1924 43.6624 30.919 43.6293 30.6729 43.5199C28.7336 42.6297 26.8665 41.5901 25.0884 40.4105C25.3241 40.234 25.5599 40.0576 25.7957 39.8659C26.2962 39.4673 26.7982 39.0703 27.2683 38.6489C28.4699 39.4126 29.7149 40.106 30.9969 40.7254C31.3939 40.3572 31.7773 39.9891 32.1758 39.6057C32.7935 38.9972 33.3685 38.4131 33.8994 37.8228C34.2523 37.4547 34.6205 37.0135 35.0343 36.5419C35.3872 36.1145 35.7554 35.6718 36.1098 35.2017C36.5951 34.6115 37.0377 34.0075 37.4652 33.3884C37.701 33.0841 37.9216 32.7403 38.1422 32.4163C37.4791 31.7805 36.7697 31.1948 36.02 30.6638C35.3099 30.1489 34.5671 29.6809 33.796 29.2628C33.4568 29.7785 33.1038 30.2805 32.7493 30.7658C32.1317 31.6207 31.4974 32.4163 30.8493 33.183C30.5542 33.5207 30.2743 33.8311 30.0096 34.1262C29.891 34.2783 29.7586 34.4061 29.6263 34.5521L29.611 34.5674L29.5974 34.5826L29.5821 34.5963L29.5669 34.6115L29.5532 34.6267L29.538 34.6419L29.5228 34.6556L29.4939 34.686V34.6997C28.0871 36.1815 26.5756 37.5602 24.9712 38.8253C22.5467 40.687 19.9165 42.2642 17.1322 43.526C16.8792 43.6395 16.5972 43.6721 16.3249 43.6193C16.0526 43.5664 15.8033 43.4308 15.611 43.2309C14.9614 42.6711 14.3575 42.096 13.7536 41.521C13.1451 40.9323 12.5457 40.304 11.9281 39.6209C11.4717 39.1341 11.0746 38.6778 10.7201 38.2655C10.3231 37.7939 9.93974 37.3223 9.5716 36.866C9.0848 36.2331 8.61323 35.5988 8.14164 34.9355C7.67005 34.2722 7.2289 33.5953 6.81664 32.9472C6.49109 32.4315 6.15332 31.8823 5.81409 31.3119C5.50984 30.7521 5.19494 30.1922 4.90134 29.6385C4.5195 28.9311 4.16508 28.2085 3.82584 27.4875C3.4866 26.7664 3.19301 26.0423 2.88419 25.2908C2.32437 23.9217 1.83758 22.5221 1.41011 21.0921C0.98264 19.6622 0.62971 18.22 0.345237 16.7611C0.289859 16.4924 0.319737 16.2131 0.430733 15.9622C0.541728 15.7113 0.728275 15.5013 0.964359 15.3616C2.67967 14.1423 4.48732 13.0585 6.37089 12.1198C6.44391 12.8272 6.53364 13.5194 6.65077 14.2115C6.67968 14.4473 6.7238 14.6831 6.76791 14.9189C5.51748 15.5729 4.30745 16.3014 3.14432 17.1004C3.38012 18.2048 3.66001 19.2803 3.96883 20.3269C4.36739 21.6824 4.83904 23.0074 5.35474 24.2822C5.63465 24.9744 5.92824 25.6665 6.25226 26.3587C6.57629 27.0509 6.90181 27.7278 7.25474 28.3774C7.53465 28.9235 7.82981 29.4423 8.12493 29.9686C8.41853 30.4554 8.73342 30.9711 9.06657 31.5157C9.48035 32.1638 9.89257 32.7981 10.32 33.3869C10.7475 33.9756 11.2039 34.6039 11.6755 35.2002C12.0436 35.6703 12.3966 36.1129 12.7647 36.5404C13.1633 37.012 13.5466 37.4532 13.8844 37.8213C14.4305 38.4116 15.004 39.0003 15.6232 39.6042C16.0065 39.9876 16.4051 40.3557 16.7869 40.7102C19.0038 39.6438 21.1067 38.3553 23.0636 36.8644C25.9315 34.6896 28.4677 32.1089 30.5923 29.2034L30.5968 29.1989ZM46.8194 15.3555C47.0547 15.4968 47.2413 15.7064 47.3544 15.9564C47.4675 16.2065 47.5016 16.4851 47.4523 16.755C47.1572 18.2139 46.8042 19.6576 46.3767 21.086C45.9492 22.5145 45.464 23.9156 44.9179 25.2847C44.8625 25.4213 44.7825 25.5466 44.682 25.6544C44.4509 25.9223 44.1236 26.0886 43.7708 26.117C43.4181 26.1455 43.0684 26.0339 42.7972 25.8065C41.8017 24.9399 40.7481 24.1424 39.6437 23.4196C38.5585 22.7098 37.4261 22.075 36.2543 21.5196C35.947 21.381 35.7026 21.1324 35.5692 20.8228C35.4357 20.5132 35.423 20.1648 35.5333 19.8462C35.974 18.6064 36.3427 17.3422 36.6377 16.0598C36.77 15.5593 36.8735 15.0573 36.9769 14.5386C37.3161 14.6709 37.6402 14.8048 37.9795 14.9508C38.4799 15.1729 38.9804 15.4072 39.4809 15.6445C39.4079 15.9975 39.3288 16.3367 39.2451 16.6759C39.0108 17.6632 38.7446 18.6536 38.4358 19.6226C39.3486 20.0942 40.2476 20.6236 41.1162 21.1834C41.7795 21.6261 42.4428 22.0961 43.0771 22.5829C43.3418 21.8467 43.5928 21.0952 43.8134 20.33C44.1374 19.2834 44.4021 18.2002 44.6531 17.1034C42.7197 15.7814 40.6619 14.6513 38.5089 13.7293C37.1827 13.1562 35.8251 12.6589 34.4426 12.24C33.1792 11.8584 31.8952 11.5486 30.5968 11.312C29.684 11.1508 28.7409 11.0184 27.7825 10.915C26.8241 10.8115 25.8824 10.7522 24.9393 10.7233L24.4099 10.7081H23.3785L22.8628 10.7233C21.9196 10.7522 20.9612 10.8115 20.018 10.915C19.0748 11.0184 18.118 11.1508 17.19 11.312C15.9076 11.5478 14.6267 11.8718 13.3443 12.24C12.8575 12.3921 12.3722 12.5442 11.8854 12.7116C11.8413 12.4317 11.7972 12.167 11.7683 11.887C11.68 11.2542 11.6162 10.6351 11.5766 10.0007C15.5517 8.68644 19.712 8.01874 23.8988 8.02307C29.0775 8.03017 34.2058 9.04066 39.0002 10.9986C41.7652 12.1508 44.39 13.614 46.824 15.3601L46.8194 15.3555ZM22.2726 27.0098C22.052 26.7299 21.8603 26.4789 21.6838 26.2583C20.2819 24.339 19.0915 22.2738 18.1332 20.0988C18.0009 19.8051 17.867 19.51 17.7499 19.2149C17.6327 18.9198 17.543 18.6703 17.4456 18.3904C17.4035 18.2931 17.3738 18.1909 17.3574 18.0861C17.326 17.9129 17.3294 17.7351 17.3674 17.5632C17.4054 17.3912 17.4773 17.2286 17.5788 17.0848C17.6803 16.9409 17.8095 16.8187 17.9588 16.7252C18.108 16.6318 18.2743 16.569 18.4481 16.5405C18.728 16.4812 19.0566 16.4371 19.3912 16.3884L20.3481 16.2545C20.9384 16.1967 21.5271 16.1526 22.1311 16.1024C22.735 16.0522 23.348 16.0583 23.9002 16.0583C24.4525 16.0583 25.0488 16.072 25.6816 16.1024C26.2901 16.1465 26.8759 16.1907 27.4509 16.2545L28.4077 16.3884C28.7621 16.4325 29.071 16.4767 29.3661 16.5405C29.4413 16.5527 29.5152 16.572 29.5867 16.5984C29.9201 16.7187 30.1924 16.966 30.3443 17.2863C30.4962 17.6066 30.5153 17.9739 30.3975 18.3082C30.2788 18.6125 30.1617 18.9259 30.043 19.221C29.9244 19.5161 29.8073 19.8112 29.6749 20.1048C29.1963 21.189 28.66 22.2467 28.0685 23.2736C27.4741 24.3078 26.8199 25.3065 26.1091 26.2644C25.888 26.5575 25.6968 26.808 25.5356 27.0159C25.2846 27.3201 25.0929 27.5757 24.9271 27.7522C24.8752 27.818 24.8154 27.8773 24.7491 27.9286C24.6153 28.0414 24.4604 28.1263 24.2934 28.1785C24.1264 28.2308 23.9508 28.2492 23.7766 28.2328C23.6024 28.2163 23.4332 28.1654 23.2789 28.0829C23.1246 28.0003 22.9884 27.8879 22.878 27.7522C22.6574 27.5012 22.4657 27.2654 22.2695 27.0159L22.2726 27.0098Z" fill="#38CEC9"/>
</svg>
