<svg width="18" height="18" viewBox="0 0 18 18" fill="none" xmlns="http://www.w3.org/2000/svg">
<path d="M11.73 10.31C12.52 9.24 13 7.93 13 6.5C13 2.91 10.09 0 6.5 0C2.91 0 0 2.91 0 6.5C0 10.09 2.91 13 6.5 13C7.93 13 9.24 12.52 10.31 11.73L16.59 18L18 16.59L11.73 10.31ZM6.5 11C4.01 11 2 8.99 2 6.5C2 4.01 4.01 2 6.5 2C8.99 2 11 4.01 11 6.5C11 8.99 8.99 11 6.5 11Z" fill="white"/>
<path d="M7.29 5.44L6.5 3L5.71 5.44H3.25L5.26 7.03L4.49 9.5L6.5 7.97L8.51 9.5L7.74 7.03L9.75 5.44H7.29Z" fill="white"/>
</svg>
