<svg width="81" height="81" viewBox="0 0 81 81" fill="none" xmlns="http://www.w3.org/2000/svg">
<path d="M70.3775 0.53125H10.0683C4.63086 0.53125 0.2229 4.93921 0.2229 10.3766V70.6859C0.2229 76.1233 4.63086 80.5312 10.0683 80.5312H70.3775C75.8149 80.5312 80.2229 76.1233 80.2229 70.6859V10.3766C80.2229 4.93921 75.8149 0.53125 70.3775 0.53125Z" fill="#FFF86D"/>
<path d="M55.8705 43.7569H54.548C54.4679 42.6975 53.9904 41.7074 53.2113 40.9851C52.4322 40.2627 51.409 39.8613 50.3465 39.8613C49.2841 39.8613 48.2608 40.2627 47.4817 40.9851C46.7026 41.7074 46.2252 42.6975 46.1451 43.7569H44.8226C44.0733 43.7575 43.3549 44.0552 42.8249 44.5848C42.2949 45.1144 41.9967 45.8327 41.9956 46.5819V56.2413C41.9956 56.9909 42.2931 57.7099 42.8228 58.2403C43.3525 58.7707 44.071 59.0692 44.8206 59.0703H55.8705C56.6197 59.0698 57.3382 58.772 57.8682 58.2424C58.3981 57.7128 58.6964 56.9946 58.6975 56.2453V46.5819C58.6964 45.8327 58.3981 45.1144 57.8682 44.5848C57.3382 44.0552 56.6197 43.7575 55.8705 43.7569ZM50.3465 41.064C51.0917 41.0652 51.8102 41.3415 52.3641 41.84C52.9179 42.3385 53.2682 43.024 53.3476 43.7649H47.3455C47.4249 43.024 47.7751 42.3385 48.329 41.84C48.8829 41.3415 49.6014 41.0652 50.3465 41.064ZM57.499 56.2493C57.4985 56.6804 57.3269 57.0936 57.0219 57.3982C56.7169 57.7028 56.3035 57.8739 55.8725 57.8739H44.8206C44.3895 57.8739 43.9761 57.7028 43.6711 57.3982C43.3662 57.0936 43.1946 56.6804 43.194 56.2493V46.5819C43.1946 46.1509 43.3662 45.7377 43.6711 45.4331C43.9761 45.1284 44.3895 44.9574 44.8206 44.9574H55.8705C56.3015 44.9574 56.7149 45.1284 57.0199 45.4331C57.3249 45.7377 57.4965 46.1509 57.497 46.5819L57.499 56.2493Z" fill="#1D191F"/>
<path d="M50.3464 47.7246C49.9031 47.7241 49.4691 47.8519 49.0969 48.0928C48.7248 48.3336 48.4303 48.6771 48.2492 49.0817C48.068 49.4863 48.0079 49.9347 48.0762 50.3727C48.1445 50.8108 48.3381 51.2196 48.6338 51.5499V54.7971H52.061V51.5499C52.3568 51.2195 52.5505 50.8104 52.6187 50.3722C52.6869 49.934 52.6266 49.4855 52.4452 49.0808C52.2638 48.6761 51.9691 48.3326 51.5966 48.092C51.2241 47.8513 50.7899 47.7237 50.3464 47.7246ZM51.0667 50.8477L50.8666 51.0278V53.5967H49.8402V51.0278L49.6401 50.8477C49.4709 50.7011 49.3505 50.5062 49.2951 50.2892C49.2398 50.0723 49.252 49.8435 49.3303 49.6337C49.4085 49.4239 49.549 49.243 49.733 49.1153C49.9169 48.9876 50.1355 48.9192 50.3594 48.9192C50.5833 48.9192 50.8019 48.9876 50.9859 49.1153C51.1698 49.243 51.3103 49.4239 51.3885 49.6337C51.4668 49.8435 51.4791 50.0723 51.4237 50.2892C51.3683 50.5062 51.2479 50.7011 51.0787 50.8477H51.0667Z" fill="#1D191F"/>
<path d="M54.866 21.9961H25.5798C24.189 21.9993 22.8561 22.5536 21.8732 23.5376C20.8903 24.5217 20.3375 25.8552 20.3359 27.246V45.0902C20.3375 46.4815 20.8909 47.8154 21.8747 48.7992C22.8586 49.7831 24.1925 50.3365 25.5838 50.3381H38.4023C38.5614 50.3381 38.7141 50.2748 38.8267 50.1623C38.9392 50.0497 39.0025 49.897 39.0025 49.7378C39.0025 49.5787 38.9392 49.426 38.8267 49.3134C38.7141 49.2009 38.5614 49.1376 38.4023 49.1376H25.5798C24.5075 49.135 23.48 48.7076 22.7222 47.949C21.9643 47.1904 21.5379 46.1625 21.5364 45.0902V34.4205H58.9134V41.623C58.9134 41.7822 58.9767 41.9349 59.0892 42.0474C59.2018 42.16 59.3545 42.2232 59.5137 42.2232C59.6728 42.2232 59.8255 42.16 59.9381 42.0474C60.0506 41.9349 60.1139 41.7822 60.1139 41.623V27.246C60.1123 25.8545 59.5589 24.5204 58.5752 23.5362C57.5914 22.5521 56.2575 21.9982 54.866 21.9961ZM25.5798 23.1966H54.866C55.9393 23.1981 56.9682 23.6253 57.7269 24.3845C58.4857 25.1436 58.9124 26.1727 58.9134 27.246V28.5144H21.5364V27.246C21.5374 26.1734 21.9636 25.1449 22.7215 24.3859C23.4793 23.6269 24.5072 23.1992 25.5798 23.1966ZM21.5364 33.2201V29.7148H58.9134V33.2201H21.5364Z" fill="#1D191F"/>
<path d="M37.93 41.4336H25.0756C24.9164 41.4336 24.7637 41.4969 24.6511 41.6094C24.5386 41.722 24.4753 41.8747 24.4753 42.0339C24.4753 42.193 24.5386 42.3457 24.6511 42.4583C24.7637 42.5708 24.9164 42.6341 25.0756 42.6341H37.93C38.0892 42.6341 38.2419 42.5708 38.3545 42.4583C38.467 42.3457 38.5303 42.193 38.5303 42.0339C38.5303 41.8747 38.467 41.722 38.3545 41.6094C38.2419 41.4969 38.0892 41.4336 37.93 41.4336Z" fill="#1D191F"/>
<path d="M37.93 44.4434H25.0756C24.9164 44.4434 24.7637 44.5067 24.6511 44.6192C24.5386 44.7318 24.4753 44.8844 24.4753 45.0436C24.4753 45.2028 24.5386 45.3555 24.6511 45.468C24.7637 45.5806 24.9164 45.6438 25.0756 45.6438H37.93C38.0892 45.6438 38.2419 45.5806 38.3545 45.468C38.467 45.3555 38.5303 45.2028 38.5303 45.0436C38.5303 44.8844 38.467 44.7318 38.3545 44.6192C38.2419 44.5067 38.0892 44.4434 37.93 44.4434Z" fill="#1D191F"/>
</svg>
