<svg width="41" height="44" viewBox="0 0 41 44" fill="none" xmlns="http://www.w3.org/2000/svg">
<path fill-rule="evenodd" clip-rule="evenodd" d="M15.6162 13.8359L13.2556 17.9171L11.0094 14.0209L13.3583 9.93971H29.7653L33.249 3.89722H9.87169L5.26496 11.8878C8.72075 17.8579 12.1712 23.828 15.6162 29.798H22.5836C20.8337 26.769 19.0847 23.7404 17.3367 20.7123L16.8523 19.874H32.8203L39.6878 31.7652L32.8203 43.6374H7.6256L0.828546 31.6507L4.24177 25.7227L6.50255 29.6175L5.27965 31.7506L9.88638 39.7412H30.561L35.1824 31.7506L30.5757 23.76H23.6083C25.0861 26.3339 26.5649 28.9074 28.0447 31.4804L28.2121 31.7461L27.089 33.6943H13.3701C9.21744 26.5135 5.07019 19.3382 0.928327 12.1682L0.772705 11.8834L7.6256 -0.0078125H40.0138L32.029 13.8359H15.6162Z" fill="#7F46F0"/>
</svg>
