<svg width="36" height="44" viewBox="0 0 36 44" fill="none" xmlns="http://www.w3.org/2000/svg">
<path fill-rule="evenodd" clip-rule="evenodd" d="M5.26136 40.8476L9.08782 38.6537L10.6241 37.7722L12.1324 36.9026L14.499 35.5463L18.2575 33.4003L22.0199 35.5463L24.3825 36.9026L25.8906 37.7722L27.431 38.6537L31.1774 40.8157L32.3165 41.4619L33.4276 42.0962L35.6819 43.3886V22.6222L31.1774 20.0334V35.674L28.1289 33.9188L23.6363 31.35L21.9235 30.3528L20.5118 29.555V3.76652H16.0071V30.1692L12.8784 31.9683L8.38998 34.5571L5.26136 36.3401V20.0653L0.772705 22.6381V43.4205L3.01096 42.1281L4.1342 41.4938L5.26136 40.8476ZM28.125 30.3368V-0.892578H23.6324V27.7679L28.125 30.3368ZM12.8826 28.3663V8.42162H8.3939V30.9551L12.8826 28.3663Z" fill="#28CE8C"/>
</svg>
