<svg width="49" height="48" viewBox="0 0 49 48" fill="none" xmlns="http://www.w3.org/2000/svg">
<g clip-path="url(#clip0_1512_29321)">
<path fill-rule="evenodd" clip-rule="evenodd" d="M27.4819 47.085C32.6768 46.4785 37.515 44.1366 41.2133 40.4383C44.9116 36.7401 47.2534 31.9019 47.8599 26.707H39.1292C38.5785 29.5901 37.1732 32.2408 35.096 34.3146C33.0189 36.3884 30.3659 37.7894 27.4819 38.3354V47.085Z" fill="#F7936F"/>
<path fill-rule="evenodd" clip-rule="evenodd" d="M35.2373 3.24705L35.2922 3.21108C40.9416 -0.0350014 45.5096 -0.989545 47.6364 1.13916C53.6532 7.15407 36.686 25.8636 31.6597 30.8899C28.637 33.9215 25.4337 36.7675 22.0673 39.4123V47.0805C19.3608 46.7733 16.7311 45.9844 14.3025 44.7511L14.2475 44.7871C8.59814 48.0331 4.03209 48.9876 1.90339 46.8703C-1.01316 43.9538 2.39952 37.24 4.01309 34.4693C2.78746 32.0376 1.999 29.4093 1.68367 26.7044H10.4333C10.8159 28.7352 11.6252 30.6617 12.8077 32.3564C13.9902 34.0511 15.519 35.4755 17.2929 36.5355C16.2835 37.2684 15.257 37.9654 14.1926 38.6188C12.634 39.6093 11.0204 40.5448 9.35003 41.3876C8.04275 40.2299 6.87346 38.9252 5.86534 37.4995C4.10405 40.8933 3.51696 43.3875 4.45252 44.3174C8.46941 48.2945 26.5368 31.6986 29.5083 28.7271C32.6719 25.5677 35.631 22.21 38.3678 18.6745C37.466 16.3698 35.9929 14.3323 34.0869 12.7536C32.1809 11.175 29.9047 10.1071 27.4724 9.65022V0.900531C30.1794 1.20509 32.8096 1.99415 35.2373 3.22999V3.24705ZM43.6744 10.493C45.4357 7.09918 46.0228 4.60496 45.0872 3.67507C44.1516 2.74518 41.6783 3.34555 38.2826 5.10684C40.3701 6.58832 42.1929 8.41114 43.6744 10.4987V10.493Z" fill="#F16063"/>
<path fill-rule="evenodd" clip-rule="evenodd" d="M22.0711 0.916016C16.8761 1.52292 12.0379 3.86523 8.33967 7.56382C4.64143 11.2624 2.29953 16.1008 1.69312 21.2959H10.4428C10.9861 18.4125 12.3864 15.76 14.461 13.6851C16.5356 11.6102 19.1878 10.2094 22.0711 9.66566V0.916016Z" fill="#F7936F"/>
</g>
<defs>
<clipPath id="clip0_1512_29321">
<rect width="48.142" height="48" fill="white" transform="translate(0.772705)"/>
</clipPath>
</defs>
</svg>
